<?xml version="1.0" encoding="UTF-8" standalone="yes"?>
<svg version="1.2" viewBox="0 0 135.47 135.47" baseProfile="tiny" xmlns="http://www.w3.org/2000/svg">
  <title>NSOM BIMI Logo</title>
  <path d="m79.052 78.181c-0.17861 0-0.26788-0.08938-0.26788-0.26776v-0.13408l6.8312-20.494c0.13396-0.58044 0.22323-1.0716 0.22323-1.4734 0-2.411-1.9645-3.3486-4.063-3.3486h-7.0991c-3.7058 0-5.7596 1.2055-6.9651 4.822h6.8758c0.22322 0 0.31253 0.13408 0.31253 0.35714 0 0.13408-1.518 4.5988-1.652 4.8667-0.53578 1.9645-6.6526 19.69-6.6526 20.136 0 0.22346 0.13396 0.35714 0.44648 0.35714h13.886c3.7504 0 5.8043-1.2502 7.0098-4.822zm-11.43-22.369c0-2.3217-1.9199-3.3486-4.0183-3.3486h-9.1529c-3.7058 0-5.715 1.2502-6.9205 4.822h8.885c0.22326 0 0.31253 0.13408 0.31253 0.35714-0.31253 0.84832-0.58043 1.652-0.80367 2.3663-0.40183 1.2055-0.75902 2.411-0.89296 2.545-0.53578 1.9645-6.6526 19.734-6.6526 20.315 0 0.13408 0.17861 0.13408 0.22322 0.13408h9.9119c0.26788 0 0.40183-0.08938 0.44649-0.31245l8.3939-25.405c0.17857-0.53579 0.26788-1.0269 0.26788-1.4734z" fill="#0f93d1" stroke-width="1.0481"/>
</svg>
